<svg xmlns="http://www.w3.org/2000/svg" xmlns:xlink="http://www.w3.org/1999/xlink" viewBox="0 0 155.0198 118.0141"><defs><style>.cls-1{isolation:isolate;}.cls-2{fill:url(#linear-gradient);}.cls-3{fill:url(#linear-gradient-2);}.cls-4{fill:url(#linear-gradient-3);}.cls-5{fill:url(#linear-gradient-4);}.cls-6{opacity:0.5;}.cls-14,.cls-18,.cls-19,.cls-20,.cls-22,.cls-24,.cls-28,.cls-30,.cls-6,.cls-9{mix-blend-mode:overlay;}.cls-31,.cls-7{fill:#fff;}.cls-8{fill:#582b9b;}.cls-14,.cls-18,.cls-19,.cls-20,.cls-22,.cls-24,.cls-28,.cls-30,.cls-9{opacity:0.7;}.cls-9{fill:url(#linear-gradient-5);}.cls-10{fill:#131f77;}.cls-11{fill:#f7cc2f;}.cls-12{fill:#370187;}.cls-13{fill:#fef6dc;}.cls-14{fill:url(#linear-gradient-6);}.cls-15{opacity:0.1;}.cls-16{fill:#f3effe;}.cls-17{fill:#f8d552;}.cls-18{fill:url(#linear-gradient-7);}.cls-19{fill:url(#linear-gradient-8);}.cls-20{fill:url(#linear-gradient-9);}.cls-21{fill:#7a56af;}.cls-22{fill:url(#linear-gradient-10);}.cls-23{fill:#a893c9;}.cls-24{fill:url(#linear-gradient-11);}.cls-25{fill:#fcc6b6;}.cls-26{fill:#fcc000;}.cls-27{fill:#f5efe1;}.cls-28{fill:url(#linear-gradient-12);}.cls-29{fill:#1e014c;}.cls-30{fill:url(#linear-gradient-13);}.cls-31{opacity:0.36;}</style><linearGradient id="linear-gradient" x1="69.5963" y1="1.4869" x2="85.9851" y2="136.0345" gradientUnits="userSpaceOnUse"><stop offset="0" stop-color="#370187"/><stop offset="0.3437" stop-color="#7e548d"/><stop offset="0.7971" stop-color="#d7bc94"/><stop offset="1" stop-color="#fbe697"/></linearGradient><linearGradient id="linear-gradient-2" x1="90.1334" y1="55.2046" x2="111.8623" y2="128.9276" xlink:href="#linear-gradient"/><linearGradient id="linear-gradient-3" x1="100.5852" y1="12.8645" x2="113.5195" y2="58.9107" xlink:href="#linear-gradient"/><linearGradient id="linear-gradient-4" x1="1.2612" y1="76.39" x2="58.8625" y2="23.9625" xlink:href="#linear-gradient"/><linearGradient id="linear-gradient-5" x1="60.0233" y1="19.6025" x2="82.1535" y2="64.3147" gradientUnits="userSpaceOnUse"><stop offset="0" stop-color="#fff"/><stop offset="0.1654" stop-color="#c8c8c8"/><stop offset="0.3939" stop-color="#828282"/><stop offset="0.5999" stop-color="#4a4a4a"/><stop offset="0.776" stop-color="#222"/><stop offset="0.9151" stop-color="#090909"/><stop offset="1"/></linearGradient><linearGradient id="linear-gradient-6" x1="116.3774" y1="81.7906" x2="131.9589" y2="94.8881" gradientUnits="userSpaceOnUse"><stop offset="0" stop-color="#fff"/><stop offset="0.2563" stop-color="#c2c2c2"/><stop offset="0.8455" stop-color="#292929"/><stop offset="1"/></linearGradient><linearGradient id="linear-gradient-7" x1="26.7729" y1="98.4949" x2="36.9559" y2="111.4045" gradientTransform="matrix(-0.8734, 0.4871, 0.4871, 0.8734, 10.5228, -37.3303)" gradientUnits="userSpaceOnUse"><stop offset="0" stop-color="#fff"/><stop offset="0.1515" stop-color="#c4c4c4"/><stop offset="0.3212" stop-color="#898989"/><stop offset="0.4853" stop-color="#585858"/><stop offset="0.6393" stop-color="#323232"/><stop offset="0.7809" stop-color="#161616"/><stop offset="0.9055" stop-color="#060606"/><stop offset="1"/></linearGradient><linearGradient id="linear-gradient-8" x1="-0.8505" y1="109.1579" x2="-0.6835" y2="116.4034" gradientTransform="matrix(-1, -0.0097, -0.0097, 1, 25.4002, -32.8851)" xlink:href="#linear-gradient-7"/><linearGradient id="linear-gradient-9" x1="41.5237" y1="117.536" x2="41.6537" y2="123.1761" gradientTransform="matrix(-0.9087, 0.4175, 0.4175, 0.9087, 13.6021, -35.9874)" xlink:href="#linear-gradient-7"/><linearGradient id="linear-gradient-10" x1="0.4171" y1="119.9576" x2="14.2178" y2="115.3945" gradientTransform="matrix(-0.9881, 0.154, 0.154, 0.9881, 37.5993, -29.3395)" gradientUnits="userSpaceOnUse"><stop offset="0" stop-color="#fff"/><stop offset="1"/></linearGradient><linearGradient id="linear-gradient-11" x1="61.2634" y1="137.3736" x2="50.1202" y2="137.2484" gradientTransform="matrix(-0.7621, 0.6475, 0.6475, 0.7621, -12.4917, -39.6404)" xlink:href="#linear-gradient-10"/><linearGradient id="linear-gradient-12" x1="61.7996" y1="83.6201" x2="78.4963" y2="83.6201" xlink:href="#linear-gradient-5"/><linearGradient id="linear-gradient-13" x1="6.9812" y1="52.8365" x2="29.563" y2="62.8855" xlink:href="#linear-gradient-6"/></defs><g class="cls-1"><g id="Layer_2" data-name="Layer 2"><g id="Layer_1-2" data-name="Layer 1"><g id="Marketing_Courses" data-name="Marketing Courses"><path class="cls-2" d="M147.0791,102.532a26.3448,26.3448,0,0,1-2.7821,2.2341c-9.7584,6.892-24.9546,8.4305-40.1928-.9695-7.6085-4.679-13.1727-5.8382-17.9782-5.3535A24.8364,24.8364,0,0,0,81.0677,99.56c-1.1382.3793-2.2341.822-3.33,1.2856-2.5923,1.0749-5.1848,2.2974-8.03,3.2668a29.5665,29.5665,0,0,1-15.0064,1.2436c-1.1171-.19-2.192-.4005-3.2036-.6534a31.64,31.64,0,0,1-4.2575-1.3067C27.6178,95.9983,34.9946,76.0179,21,74.3528a9.8982,9.8982,0,0,0-1.1593-.1053c-18.99-.8221-29.2118-24.5962-8.0932-35.9564,15.449-8.283,13.8893-9.5266,17.1562-22.7625A21.5669,21.5669,0,0,1,45.6593.2271c6.5548-1.0749,13.8472,1.5385,19.58,10.58,4.0678,6.4283,14.7113,9.7373,25.0177,9.5686,8.5148-.1475,16.7769-2.6767,20.9289-7.84,9.1261-11.4024,32.0784-9.2948,36.2093,4.5524,4.131,13.8262-7.3135,3.92-12.4562,21.0975a22.7587,22.7587,0,0,0-.6955,3.0771,19.205,19.205,0,0,0-.1265,4.7633c.5059,4.6368,2.8243,8.4517,5.7328,12.1189,4.5314,5.754,10.5593,11.0441,13.4047,18.1679C157.2378,86.24,154.1818,95.9983,147.0791,102.532Z"/><path class="cls-3" d="M147.0791,102.532a26.3448,26.3448,0,0,1-2.7821,2.2341c-9.7584,6.892-24.9546,8.4305-40.1928-.9695-7.6085-4.679-13.1727-5.8382-17.9782-5.3535A24.8364,24.8364,0,0,0,81.0677,99.56c-1.1382.3793-2.2341.822-3.33,1.2856a22.8039,22.8039,0,0,0-5.5009-1.4543,36.1253,36.1253,0,0,0-10.1166.1476c-1.075.1475-2.171.3373-3.267.4847a23.905,23.905,0,0,1-5.6274.2319,13.4856,13.4856,0,0,1-2.1919-.4426,9.8548,9.8548,0,0,1-5.6906-4.1311c-2.445-4.0466-1.1171-9.2314.99-13.1516a25.2751,25.2751,0,0,1,3.5619-5.1638,10.051,10.051,0,0,1,1.0118-1.0959,12.6836,12.6836,0,0,1,.9694-.8853c4.8687-4.0888,11.4235-5.2691,17.81-5.3322,0,0,0,.0211.0211,0h.78c.5269,0,1.075.0211,1.6019.0422,6.1331.19,12.3085,1.0327,18.3574.5269A45.29,45.29,0,0,0,97.402,69.421a66.6932,66.6932,0,0,0,14.648-5.796c1.4122-.7378,2.7821-1.4965,4.1521-2.2763.2318-.1265.4847-.274.7166-.4216a70.086,70.086,0,0,0,9.21-6.1542h.021a37.3351,37.3351,0,0,0,5.9436-5.88c.3162-.38.6113-.7589.9062-1.1593a19.6617,19.6617,0,0,0,1.1171-1.7072c.5059,4.6368,2.8243,8.4517,5.7328,12.1189,4.5314,5.754,10.5593,11.0441,13.4047,18.1679C157.2378,86.24,154.1818,95.9983,147.0791,102.532Z"/><path class="cls-4" d="M134.9377,38.1962a20.8841,20.8841,0,0,0-.6921,3.0743c-1.4969-.37-2.9939-.6439-4.5069-.8853a35.1524,35.1524,0,0,0-9.2713-.3863,22.584,22.584,0,0,0-12.4424,5.698c-1.5613,1.4326-2.9134,3.09-4.523,4.4748a25.9779,25.9779,0,0,1-8.74,4.7c-5.9877,2.012-12.6193,2.6719-18.6553.7405-6.02-1.9477-11.2995-6.7765-12.7642-12.9252a10.405,10.405,0,0,1,.5311-6.9858c1.6579-3.2836,5.3923-4.9414,8.9817-5.7784,3.5732-.8209,7.3559-1.1107,10.6073-2.8168a17.9337,17.9337,0,0,0,6.7925-6.7282c8.5148-.1449,16.7883-2.6881,20.925-7.8388,9.1426-11.3961,32.0795-9.2875,36.2162,4.5391C151.5328,30.9207,140.0724,21.0056,134.9377,38.1962Z"/><path class="cls-5" d="M63.7929,59.54a5.9748,5.9748,0,0,1-1.5935,1.1912c-.0161.0161-.0322.0161-.0643.0161-.322.1288-.66.2575-.9819.4024a.0838.0838,0,0,1-.0644.0322,12.3116,12.3116,0,0,1-7.6134-.5472c-3.4446-1.2556-6.7283-3.2515-10.3981-3.38-3.686-.1127-7.1467,1.7062-10.2694,3.67a28.4573,28.4573,0,0,0-8.3216,7.211A68.8493,68.8493,0,0,0,21.01,74.348c-.37-.0483-.7726-.0805-1.175-.0966-18.9934-.8209-29.1984-24.5948-8.08-35.9586,15.4362-8.29,13.8909-9.529,17.1585-22.76A21.5494,21.5494,0,0,1,45.6526.2254c-.1609.2736-.3058.5634-.4345.8371a25.0921,25.0921,0,0,0-2.334,13.5529c1.0945,9.32,7.3237,17.271,14.406,23.4359,2.5432,2.2213,5.2956,4.3782,6.8409,7.3881a16.504,16.504,0,0,1,1.61,6.68C65.8854,54.7429,65.5957,57.6242,63.7929,59.54Z"/><g class="cls-6"><circle class="cls-7" cx="28.1858" cy="41.421" r="0.4647"/><circle class="cls-7" cx="48.9409" cy="10.2709" r="0.4647"/><path class="cls-7" d="M131.44,19.8379a.4647.4647,0,1,1-.4647-.4647A.4647.4647,0,0,1,131.44,19.8379Z"/><circle class="cls-7" cx="112.4555" cy="40.5423" r="0.4647"/><circle class="cls-7" cx="147.3429" cy="86.173" r="0.4647"/><path class="cls-7" d="M115.4623,100.6929a.4647.4647,0,1,1-.4647-.4646A.4647.4647,0,0,1,115.4623,100.6929Z"/><circle class="cls-7" cx="101.7666" cy="81.0982" r="0.4647"/><path class="cls-7" d="M66.6793,93.0431a.4647.4647,0,1,1-.4647-.4647A.4646.4646,0,0,1,66.6793,93.0431Z"/><path class="cls-7" d="M70.3184,69.6294a.4647.4647,0,1,1-.4647-.4647A.4647.4647,0,0,1,70.3184,69.6294Z"/><circle class="cls-7" cx="45.1408" cy="72.807" r="0.4647"/><circle class="cls-7" cx="4.8569" cy="48.1958" r="0.4647"/><circle class="cls-7" cx="22.8241" cy="63.8278" r="0.4647"/><path class="cls-7" d="M45.5454,47.2522a.4647.4647,0,1,1-.4647-.4647A.4646.4646,0,0,1,45.5454,47.2522Z"/><path class="cls-7" d="M68.25,21.5017a.4647.4647,0,1,1-.4647-.4646A.4646.4646,0,0,1,68.25,21.5017Z"/><path class="cls-7" d="M106.4649,56.1586A.4647.4647,0,1,1,106,55.694.4647.4647,0,0,1,106.4649,56.1586Z"/><circle class="cls-7" cx="129.8074" cy="63.3702" r="0.4647"/><path class="cls-7" d="M125.5723,73.8411a.4647.4647,0,1,1-.4647-.4646A.4646.4646,0,0,1,125.5723,73.8411Z"/><circle class="cls-7" cx="125.8947" cy="12.807" r="0.303"/><circle class="cls-7" cx="142.5445" cy="19.4754" r="0.303"/><circle class="cls-7" cx="128.3421" cy="31.681" r="0.303"/><circle class="cls-7" cx="114.7943" cy="23.2864" r="0.303"/><path class="cls-7" d="M104.02,38.729a.303.303,0,1,1-.303-.3031A.3031.3031,0,0,1,104.02,38.729Z"/><circle class="cls-7" cx="117.8544" cy="49.0752" r="0.303"/><circle class="cls-7" cx="136.2004" cy="59.4039" r="0.303"/><circle class="cls-7" cx="101.6964" cy="70.8197" r="0.303"/><circle class="cls-7" cx="142.4193" cy="76.9728" r="0.303"/><circle class="cls-7" cx="144.6912" cy="95.371" r="0.303"/><path class="cls-7" d="M131.2038,103.8435a.303.303,0,1,1-.303-.303A.303.303,0,0,1,131.2038,103.8435Z"/><path class="cls-7" d="M104.6914,96.3431a.303.303,0,1,1-.303-.3031A.303.303,0,0,1,104.6914,96.3431Z"/><circle class="cls-7" cx="76.2927" cy="75.5829" r="0.303"/><circle class="cls-7" cx="58.4868" cy="78.8177" r="0.303"/><circle class="cls-7" cx="58.2865" cy="98.7881" r="0.303"/><path class="cls-7" d="M53.5551,69.2953a.3031.3031,0,1,1-.303-.303A.303.303,0,0,1,53.5551,69.2953Z"/><path class="cls-7" d="M33.8438,77.4847a.303.303,0,1,1-.303-.303A.303.303,0,0,1,33.8438,77.4847Z"/><circle class="cls-7" cx="35.4877" cy="56.5144" r="0.303"/><circle class="cls-7" cx="37.788" cy="35.5607" r="0.303"/><circle class="cls-7" cx="14.2625" cy="41.1459" r="0.303"/><circle class="cls-7" cx="4.5059" cy="62.6976" r="0.303"/><circle class="cls-7" cx="16.4871" cy="68.3234" r="0.303"/><circle class="cls-7" cx="33.9753" cy="22.5313" r="0.303"/><circle class="cls-7" cx="54.9821" cy="19.1831" r="0.303"/><circle class="cls-7" cx="54.9406" cy="5.5045" r="0.303"/><circle class="cls-7" cx="40.1094" cy="5.7329" r="0.303"/><circle class="cls-7" cx="41.3023" cy="19.4184" r="0.303"/></g><path class="cls-8" d="M98.5512,27.8614V60.1423a4.2551,4.2551,0,0,1-4.2655,4.2465H49.9872a4.2559,4.2559,0,0,1-4.0659-3.0115,4.411,4.411,0,0,1-.1805-1.235V27.8614a4.2511,4.2511,0,0,1,4.2464-4.2466H94.2857a4.2148,4.2148,0,0,1,3.42,1.7291A4.1405,4.1405,0,0,1,98.5512,27.8614Z"/><path class="cls-9" d="M98.5512,54.8983v5.244a4.2551,4.2551,0,0,1-4.2655,4.2465H49.9872a4.2559,4.2559,0,0,1-4.0659-3.0115,4.411,4.411,0,0,1-.1805-1.235v-4.693c.3894-.0665.779-.133,1.1684-.19.8551-.133,1.71-.247,2.5746-.361a30.68,30.68,0,0,0,5.7855-1.197,11.965,11.965,0,0,0,1.5009-.627,11.28,11.28,0,0,0,3.8665-3.04,2.5069,2.5069,0,0,0,.2-.247A6.6545,6.6545,0,0,0,62.2422,44.99v-.01A6.7705,6.7705,0,0,0,60.58,41.4178a11.5384,11.5384,0,0,0-3.5909-2.7265,5.5,5.5,0,0,0-.532-.2564c-.6555-.2945-1.33-.5606-2.0141-.7981-1.7954-.6269-3.6574-1.1114-5.4339-1.8144q-.57-.2282-1.14-.4845a14.6268,14.6268,0,0,1-2.1279-1.2066v-6.27a4.2511,4.2511,0,0,1,4.2464-4.2466H94.2857a4.2148,4.2148,0,0,1,3.42,1.7291c-.5035-.0761-.9025-.171-1.1495-.19-3.7145-.361-7.7425-.6555-10.8585,1.4061a7.6626,7.6626,0,0,0-1.4915,1.2729,9.6211,9.6211,0,0,0-2.413,5.2631,9.9852,9.9852,0,0,0-.076,1.9189,11.2255,11.2255,0,0,0,.9025,3.6765,12.4129,12.4129,0,0,0,1.368,2.451,13.6964,13.6964,0,0,0,2.09,2.356c2.3275,2.0995,5.225,3.42,7.6855,5.3485a16.508,16.508,0,0,1,1.8525,1.7006,8.3415,8.3415,0,0,1,.6175.6839A14.8473,14.8473,0,0,1,98.5512,54.8983Z"/><path class="cls-7" d="M96.2291,29.9v1.124a2.08,2.08,0,0,1-2.0873,2.0712H51.5572a2.0763,2.0763,0,0,1-2.0714-2.0712V29.9a2.0763,2.0763,0,0,1,2.0714-2.0712H94.1418A2.08,2.08,0,0,1,96.2291,29.9Z"/><path class="cls-10" d="M93.5542,30.9013l-.038-.057-.266-.399a1.0354,1.0354,0,1,0-1.5675-.19,1.0378,1.0378,0,0,0,1.2635.39l.266.3989.0285.0475.323.5036.3135-.2091Zm-.627-.6269a.6934.6934,0,0,1-.969-.2.6852.6852,0,0,1,.2-.9689.7.7,0,1,1,.7695,1.1685Z"/><path class="cls-10" d="M93.5686,30.8148l-.4069.2665a.0271.0271,0,0,0-.0079.0376l.8045,1.2283a.0272.0272,0,0,0,.0377.0079l.4069-.2665a.0272.0272,0,0,0,.0079-.0377l-.8045-1.2283A.0271.0271,0,0,0,93.5686,30.8148Z"/><rect class="cls-7" x="49.4858" y="38.6891" width="34.194" height="2.7273" rx="0.9429"/><path class="cls-7" d="M86.5727,38.6891h8.73a.9266.9266,0,0,1,.9266.9266V40.49a.9266.9266,0,0,1-.9266.9266h-8.73a.9265.9265,0,0,1-.9265-.9265v-.8743A.9265.9265,0,0,1,86.5727,38.6891Z"/><path class="cls-7" d="M50.1538,44.9928H70.173a.668.668,0,0,1,.668.668v11.94a.6679.6679,0,0,1-.6679.6679H50.1538a.668.668,0,0,1-.668-.668v-11.94a.668.668,0,0,1,.668-.668Z"/><path class="cls-7" d="M76.761,44.9928h6.0418a.877.877,0,0,1,.877.877v2.3277a.877.877,0,0,1-.877.877H76.761a.8771.8771,0,0,1-.8771-.8771V45.87A.8771.8771,0,0,1,76.761,44.9928Z"/><path class="cls-7" d="M76.2723,50.55H95.8408a.3883.3883,0,0,1,.3883.3883v6.9421a.3884.3884,0,0,1-.3884.3884H76.2722a.3883.3883,0,0,1-.3883-.3883V50.9386A.3884.3884,0,0,1,76.2723,50.55Z"/><path class="cls-11" d="M56.7682,54.2468V49.0149a.7793.7793,0,0,1,1.1278-.697l5.2319,2.6159a.7794.7794,0,0,1,0,1.3941L57.896,54.9438A.7793.7793,0,0,1,56.7682,54.2468Z"/><polygon class="cls-12" points="138.337 82.716 134.038 91.971 130.532 99.515 108.666 92.553 106.424 91.847 106.411 89.344 106.449 89.332 117.623 86.445 122.355 85.206 122.455 85.182 129.293 83.41 138.138 81.118 138.163 81.118 138.337 82.716"/><path class="cls-13" d="M126.3322,77.2407l-.0248.05-3.84,7.8914h-.0124l-3.9767,8.1765-.0124.0247c-1.5238-.8919-3.0352-1.7963-4.4475-2.49a17.6818,17.6818,0,0,0-2.3043-.9911,11.2727,11.2727,0,0,0-3.7661-.5822c-.5078,0-1.0158.0247-1.5113.0495l.0123-.0371h.0124l7.842-15.87h.1858c.5079-.0124,1.0035-.0248,1.5114-.0248a14.4361,14.4361,0,0,1,4.3235.5451A26.334,26.334,0,0,1,126.3322,77.2407Z"/><path class="cls-13" d="M138.1756,81.0563l-.0248.062h-.0124l-4.5962,9.4525-3.2333,6.64a37.6077,37.6077,0,0,0-6.7518-3.4936,9.5849,9.5849,0,0,0-3.0847-.4832c-.6814,0-1.35.062-1.9945.124h-.0248l3.9024-8.1517h.0124l3.7909-7.9162h.1486c.5079-.0248,1.0283-.0372,1.5362-.0372a14.2275,14.2275,0,0,1,4.2988.5451c.0123.0124.0123.0124.0247.0124A25.7647,25.7647,0,0,1,138.1756,81.0563Z"/><path class="cls-14" d="M134.0378,91.9706l-3.5059,7.5446-21.8657-6.9623c1.7343-.6814,3.6918-.9291,5.3518-1.66a6.1353,6.1353,0,0,0,1.883-1.2388,6.6551,6.6551,0,0,0,1.7221-3.2086,18.9436,18.9436,0,0,0,.4583-2.614,8.7415,8.7415,0,0,0-.0867-3.4068,11.0452,11.0452,0,0,0-1.5238-2.9361,18.997,18.997,0,0,1-1.9821-4.0262c.5079-.0124,1.0035-.0248,1.5114-.0248a14.4361,14.4361,0,0,1,4.3235.5451,26.334,26.334,0,0,1,6.0085,3.2581l-.0248.05c.5079-.0248,1.0283-.0372,1.5362-.0372a14.2275,14.2275,0,0,1,4.2988.5451,6.4783,6.4783,0,0,0-.5947.4212A6.0818,6.0818,0,0,0,129.293,83.41a4.6619,4.6619,0,0,0,.2354,1.0778c.5947,1.722,2.0689,2.9608,3.1095,4.46a9.0359,9.0359,0,0,1,.9043,1.6229A8.1661,8.1661,0,0,1,134.0378,91.9706Z"/><g class="cls-15"><path d="M99.0038,76.882a19.5023,19.5023,0,0,1-.2531,3.6462,11.1311,11.1311,0,0,1-1.4542,3.9624l-.8008,1.0749-.97.9273a13.47,13.47,0,0,1-2.74,1.6441c-.4426,1.2434-.9484,2.5923-1.4965,4.0466h-.1686a22.0722,22.0722,0,0,1-4.7632,6.07c-.0844.0632-.1475.1265-.2319.19A24.8364,24.8364,0,0,0,81.0677,99.56c-1.1382.3793-2.2341.822-3.33,1.2856-2.5923,1.0749-5.1848,2.2974-8.03,3.2668a34.7149,34.7149,0,0,1,1.8126-3.52c.2318-.4216.4637-.822.7166-1.2014a26.8091,26.8091,0,0,1,3.3933-4.51,8.3715,8.3715,0,0,1-1.3489.2531,33.0919,33.0919,0,0,1-7.3768-.232l-8.0512,5.1216-7.3556,4.679a31.64,31.64,0,0,1-4.2575-1.3067c.1055-.0633.2108-.1054.3162-.1687,0,.0211.0211.0422.0422.0633,1.2013-1.2435,2.3605-2.4027,3.4354-3.4776q4.0467-4.0468,6.8077-6.4494a36.7156,36.7156,0,0,1,5.3744-3.9413.7561.7561,0,0,1-.0842-.19.6394.6394,0,0,1,.2529-.527l-.0633-.021a.7808.7808,0,0,1-.4005-.4637c-.6111-2.7821-1.2223-5.6062-1.8546-8.4516h.021a.1271.1271,0,0,1-.021-.0843v-.0844a.5215.5215,0,0,1,.5269-.5269.4109.4109,0,0,1,.1475.0211L67.4734,80.17l6.1121,1.1592a.6717.6717,0,0,1,.5691.548c.19,1.1171.3794,2.34.5691,3.6252.7587-.1055,1.5807-.1475,2.4028-.19l-.0422-.0422.3793-.4425a16.6585,16.6585,0,0,0,3.583-5.6485,17.9688,17.9688,0,0,0,.6956-2.74c.0632-.2319.2318-1.3277.4847-3.2458-.274.0422-.5269.0843-.8009.1054a14.4145,14.4145,0,0,1-3.6673-.2107,10.7991,10.7991,0,0,1-2.6345-.822,10.4983,10.4983,0,0,1-1.96-1.2225l-.9063-.78-.1686-.1685c-.5269-.5269-1.0117-1.075-1.4965-1.6652a50.1032,50.1032,0,0,1-4.8265-8.0512,7.0177,7.0177,0,0,1-1.0327-.78,1.8254,1.8254,0,0,1-.19-.2318l-.0843-.1264a1.2777,1.2777,0,0,1-.1053-.2529v-.2741a1.5789,1.5789,0,0,1,.1474-.4215,5.9987,5.9987,0,0,1,.6324-.9485l.0209-.0209c.0211-.0211.0422-.0633.0633-.0844l-.0422-.0421c-.316-.3373-.5058-.59-.6533-.7588a2.46,2.46,0,0,1-.2107-.3161,1.1854,1.1854,0,0,0-.1054-.1687c-.1055-.3162-.0422-.4426.19-.4426a2.2806,2.2806,0,0,1,.9485.5058c.0422.0422.1053.0844.1475.1266a8.4,8.4,0,0,1,.7377.7587c.0843.1054.1475.2107.2319.3372a5.0438,5.0438,0,0,1,.2318.548,7.5677,7.5677,0,0,1,.2951,1.3278v.1265l.0421-.0211,8.8732,8.7888,8.009-1.4543.0211-.021c1.0749-.2319,2.0443-.3793,2.93-.4848a.0206.0206,0,0,1-.021-.0211c.4425-.0632.8851-.1264,1.096-.59a2.9457,2.9457,0,0,0,.1685-.7376,3.192,3.192,0,0,1-1.0959-.3584,1.96,1.96,0,0,1-.4848-.4425c-.5481-.822-.2951-2.2974.1686-3.9624-.822-.9484-1.644-1.8969-1.644-2.9929a.8637.8637,0,0,1,.0211-.2318,8.3683,8.3683,0,0,1,1.6861-3.2247,3.0282,3.0282,0,0,0,1.1382,2.0022,2.59,2.59,0,0,0,.4847.2319,13.262,13.262,0,0,0,2.36.274,7.5716,7.5716,0,0,1,2.34.5479c.1686.0844.3162.1687.4848.2531a3.7928,3.7928,0,0,1,1.939,3.8148c-.3162,1.56-2.0443,3.056-3.2879,3.8148l-.0842.2529c-.1687.0211-.3373.0211-.5059.0421a3.3428,3.3428,0,0,1-.9064.3162,2.0849,2.0849,0,0,0,.0422.3793c.1476.5058.548.6956.9274.9063a22.4439,22.4439,0,0,1,3.52,1.4543c.59-.19,1.2014.1264,1.8759.9695a3.9458,3.9458,0,0,1,.3162.6745A18.326,18.326,0,0,1,99.0038,76.882Z"/><path d="M33.2122,58.0917l-1.094.5393a.7527.7527,0,0,0-.3111.2926.7291.7291,0,0,0-.0982.3247h0c-1.0941-.0519-1.7744-1.38-2.9342-3.8241-.458-.9764-.9872-2.0877-1.6459-3.2749a.2767.2767,0,0,0-.0958-.0909.6293.6293,0,0,0-.6361-.8454l-6.9629.5768-4.9827.3955a.6782.6782,0,0,0-.4313.195l-1.9511,2.1514L7.4317,59.59l-1.4991,1.652a.6245.6245,0,0,0,.5206,1.0449l3.8245-.311v0L11.7165,64.96l.8425,1.7091a4.4442,4.4442,0,0,0,3.4236,2.4354,4.3772,4.3772,0,0,0,2.5167-.42l6.087-2.9919a4.5617,4.5617,0,0,0,2.161-2.2391,4.515,4.515,0,0,0-.1148-3.7094L24.3283,55.09,26.72,52.4586l.0047-.0046.0023.0039c.6342,1.15,1.1477,2.2287,1.5935,3.1864,1.1756,2.4767,1.9912,4.1857,3.5471,4.1032h0a.7163.7163,0,0,0,.8951.2132l1.1077-.543a.7781.7781,0,0,0,.311-.2924.7332.7332,0,0,0,.0249-.6927A.7521.7521,0,0,0,33.2122,58.0917Z"/><path d="M147.0791,102.532a26.3448,26.3448,0,0,1-2.7821,2.2341l-5.9015-5.0794a1.0428,1.0428,0,0,1-.3372-1.0327l-2.5712-2.213a6.9066,6.9066,0,1,1,1.6017-1.8758l2.5713,2.213a1.0983,1.0983,0,0,1,1.075.1686l6.0489,5.2058A1.3148,1.3148,0,0,1,147.0791,102.532Z"/></g><path class="cls-16" d="M40.4707,92.4107l.5277-.3617c-.0885-.13-8.8439-13.1546-6.0621-27.0062l-.6278-.1261C31.4725,79.0378,40.38,92.279,40.4707,92.4107Z"/><path class="cls-17" d="M30.4763,72.6513c3.212,1.6222,3.7506-4.066,3.7506-4.066s2.7756,4.3157,5.3341,2.3774c1.9377-1.4732-1.1644-3.1329-2.7779-3.8506-.522-.2322-.8955-.3688-.8955-.3688,6.6808-3.9518-2.1581-6.8128-2.5887-1.1016,0,0-3.2274-3.6117-4.71-1.6428-.0392.0575-.0694.11-.1087.1676-1.4158,2.3238,3.2937,3.432,3.2937,3.432C28.4784,67.5333,27.2592,71.02,30.4763,72.6513Z"/><path class="cls-18" d="M30.4763,72.6513c3.212,1.6222,3.7506-4.066,3.7506-4.066s2.7756,4.3157,5.3341,2.3774c1.9377-1.4732-1.1644-3.1329-2.7779-3.8506-.1516.4533-.4928.929-1.9188.6539-.7459-.1431-1.602.156-2.2986-.1335a1.5518,1.5518,0,0,1-.5878-.35,1.8562,1.8562,0,0,1-.3242-.7945,3.59,3.59,0,0,0-1.4157-2.0054,2.8016,2.8016,0,0,0-1.6494-.4836c-.0392.0575-.0694.11-.1087.1676-1.4158,2.3238,3.2937,3.432,3.2937,3.432C28.4784,67.5333,27.2592,71.02,30.4763,72.6513Z"/><path class="cls-16" d="M22.9286,78.8505a25.01,25.01,0,0,1,4.1862,1.5489c.6577.3056,1.2779.6357,1.8854.9782a38.1712,38.1712,0,0,1,12.817,12.74l.4889-.282A38.7634,38.7634,0,0,0,29.5768,81.059c-.1982-.1265-.4091-.2408-.62-.355-.62-.3426-1.2651-.673-1.923-.9661a.0121.0121,0,0,1-.0123-.0126c-.0125,0-.0124-.0126-.025,0a23.7142,23.7142,0,0,0-3.9256-1.4218Z"/><path class="cls-17" d="M24.8159,79.6292s-2.37,5.3127.4139,4.8908c2.085-.3163,2.035-2.8725,1.885-4.1206a4.65,4.65,0,0,0-.1182-.6743l0-.0125a.0387.0387,0,0,1,.0249.0127.0121.0121,0,0,0,.0123.0126A8.689,8.689,0,0,0,28.98,80.8663a5.5035,5.5035,0,0,0,.5965.1927,1.6859,1.6859,0,0,0,2.2683-1.2247c.9516-3.0077-1.9772-4.3824-3.9548-2.2822.1522-.2728,2.0675-3.6577-.1591-4.1654-2.3386-.5338-2.02,3.9448-2.02,3.9448a2.88,2.88,0,0,0-2.9856-.6522C20.6227,77.5067,20.0912,80.9049,24.8159,79.6292Z"/><path class="cls-19" d="M24.8159,79.6292s-2.37,5.3127.4139,4.8908c2.085-.3163,2.035-2.8725,1.885-4.1206a4.65,4.65,0,0,0-.1182-.6743l0-.0125a.0387.0387,0,0,1,.0249.0127.0121.0121,0,0,0,.0123.0126A8.689,8.689,0,0,0,28.98,80.8663c-.0119-.0625-.0114-.1124-.0234-.1623-.0107-.1871-.0462-.3744-.07-.5492a1.9609,1.9609,0,0,0-.205-.7126,1.68,1.68,0,0,0-.5675-.6163,3.1456,3.1456,0,0,0-1.9018-.58c-.3117.01-.624.0688-.9483.0906a3.7849,3.7849,0,0,1-1.9534-.4053,1.1632,1.1632,0,0,1-.5191-.4539,1.0855,1.0855,0,0,1-.0826-.487,2.5984,2.5984,0,0,1,.0155-.3115C20.6227,77.5067,20.0912,80.9049,24.8159,79.6292Z"/><path class="cls-16" d="M24.2,90.7139a19.4726,19.4726,0,0,1,3.4617-.2985c.5646-.003,1.1107.0236,1.6522.0632a29.7131,29.7131,0,0,1,13.2528,4.7178l.2507-.3608a30.1767,30.1767,0,0,0-13.2032-4.7727c-.1816-.0233-.368-.0338-.5543-.0442-.55-.0356-1.1142-.0541-1.6747-.0422a.0094.0094,0,0,1-.0128-.0048c-.0089.0041-.0129-.0047-.0177.0081a18.4617,18.4617,0,0,0-3.236.3016Z"/><path class="cls-17" d="M25.787,90.636s.0941,4.5275,1.9145,3.3065c1.3632-.9147.48-2.698-.04-3.5271a3.64,3.64,0,0,0-.307-.4356l-.004-.0088a.03.03,0,0,1,.0217.0007.0094.0094,0,0,0,.0128.0048,6.7615,6.7615,0,0,0,1.745.1487,4.2733,4.2733,0,0,0,.484-.0623,1.3122,1.3122,0,0,0,1.1908-1.615c-.328-2.4337-2.8465-2.43-3.5421-.2947.0167-.2426.2421-3.2616-1.4942-2.88-1.8239.4-.1137,3.4482-.1137,3.4482a2.2421,2.2421,0,0,0-2.3187.5315C22.13,90.5329,22.8835,93.1021,25.787,90.636Z"/><path class="cls-20" d="M25.787,90.636s.0941,4.5275,1.9145,3.3065c1.3632-.9147.48-2.698-.04-3.5271a3.64,3.64,0,0,0-.307-.4356l-.004-.0088a.03.03,0,0,1,.0217.0007.0094.0094,0,0,0,.0128.0048,6.7615,6.7615,0,0,0,1.745.1487c-.0291-.04-.0453-.0754-.07-.1065-.07-.1283-.1568-.2484-.2312-.3637a1.5259,1.5259,0,0,0-.3808-.4337,1.3069,1.3069,0,0,0-.6042-.2457,2.4481,2.4481,0,0,0-1.5314.2231c-.2163.11-.4165.2554-.6377.3784a2.9455,2.9455,0,0,1-1.51.3628.9052.9052,0,0,1-.5162-.1473.8455.8455,0,0,1-.22-.3155,2.0169,2.0169,0,0,1-.0925-.2245C22.13,90.5329,22.8835,93.1021,25.787,90.636Z"/><path class="cls-21" d="M37.949,91.5815c.5679,2.4977,2.19,5.8928,4.4787,7.355a4.2592,4.2592,0,0,0,.6672.3691,3.9244,3.9244,0,0,0,3.0234.1072c6.7239-2.4565,7.33-6.9348,6.0444-7.9645-1.2821-1.0092-4.62.373-5.5394,2.03.048-.5016,1.0094-8.5676,6.9188-12.001,5.2909-3.0847,4.4589-6.603.8909-6.5621a6.8633,6.8633,0,0,0-1.8269.2846c-4.9933,1.4193-10.2189,7.69-10.2189,7.69s-.9806-3.19-2.4165-1.61c-1.1853,1.299.4806,5.581,1.0987,7.0511-.58-1.2238-2.1326-4.2408-3.008-3.1792-.5846.7008-.5962,1.6382-.3209,5.1592A8.9564,8.9564,0,0,0,37.949,91.5815Z"/><path class="cls-7" d="M40.1211,91.2852c.183.2973.3865.5915.575.8565a20.9567,20.9567,0,0,0,1.394,1.7277c-.01.1381-.0421.2694-.0537.3973a15.6876,15.6876,0,0,0,.3913,4.67,16.44,16.44,0,0,0,.693,2.289.2982.2982,0,0,0,.3857.1816.3117.3117,0,0,0,.19-.3344.4453.4453,0,0,1-.0183-.05l-.0032-.02a16.9689,16.9689,0,0,1-.58-1.6969,15.8652,15.8652,0,0,1-.6-3.3126c3.4143,1.7388,7.1984-1.7734,7.2346-1.8106a.1407.1407,0,0,0,.0091-.2117.1507.1507,0,0,0-.2117-.0091c-.0362.0372-3.7753,3.5-7.03,1.7052-.0191-.46-.0366-.9089-.0129-1.3646A15.202,15.202,0,0,1,42.8929,91.6a7.6038,7.6038,0,0,0,3.2192-1.1323.1492.1492,0,0,0,.0415-.2062.1635.1635,0,0,0-.2062-.0415,7.494,7.494,0,0,1-2.9864,1.0751,16.6585,16.6585,0,0,1,1.4076-3.5835,23.2971,23.2971,0,0,1,4.1623-5.5371q.3808-.39.797-.7549a22.5879,22.5879,0,0,1,4.7635-3.4335A23.7455,23.7455,0,0,0,49.0177,81.52c-.2034.1789-.3965.3562-.588.5437a23.9864,23.9864,0,0,0-4.326,5.4995c-.0732.1375-.1464.2751-.2092.411-.1465.2751-.2809.5589-.4138.853a12.3711,12.3711,0,0,1-1.978-5.1375.1507.1507,0,1,0-.2993.0361A12.9734,12.9734,0,0,0,43.024,88.73a3.4946,3.4946,0,0,0,.3119.3824c-.0071.0222-.0228.0562-.03.0783a15.812,15.812,0,0,0-1.16,4.2913,19.7367,19.7367,0,0,1-1.7332-2.2845,6.0511,6.0511,0,0,1-1.1732-3.0762.1349.1349,0,0,0-.1384-.1467.1447.1447,0,0,0-.157.14A6.0991,6.0991,0,0,0,40.1211,91.2852Z"/><path class="cls-22" d="M37.949,91.5815c.5679,2.4977,2.19,5.8928,4.4787,7.355a16.44,16.44,0,0,0,.693,2.289.2982.2982,0,0,0,.3857.1816.3117.3117,0,0,0,.19-.3344.4453.4453,0,0,1-.0183-.05l-.0032-.02a16.9689,16.9689,0,0,1-.58-1.6969,3.9244,3.9244,0,0,0,3.0234.1072c6.7239-2.4565,7.33-6.9348,6.0444-7.9645-1.2821-1.0092-4.62.373-5.5394,2.03.048-.5016,1.0094-8.5676,6.9188-12.001,5.2909-3.0847,4.4589-6.603.8909-6.5621a2.8035,2.8035,0,0,1,.6545,2.379,4.6652,4.6652,0,0,1-2.5846,2.9784,20.7708,20.7708,0,0,1-3.175,1.1465c-.101.0263-.2.0627-.31.1009s-.23.0778-.35.1175A6.53,6.53,0,0,0,45.3349,83.86c-.8222,1.2-.96,2.7463-1.44,4.1142a5.5945,5.5945,0,0,1-.5451,1.1573l-.0434.0593a5.239,5.239,0,0,1-2.8937,2.0068,3.0147,3.0147,0,0,1-.2912.0875A8.5974,8.5974,0,0,1,37.949,91.5815Z"/><path class="cls-23" d="M30.8421,99.7716c3.5-1.72,7.6486.3713,7.9027.51-1.0768-.08-2.7977,1.0548-2.7195,1.9971.0793.9276,2.4044,2.06,5.7037-.3617a2.2343,2.2343,0,0,0,.901-1.4743,1.5428,1.5428,0,0,0,.0334-.41,7.4207,7.4207,0,0,0-2.2871-4.6812,2.7355,2.7355,0,0,0-.3367-.3c-1.5867-1.2417-2.035-1.5287-2.5479-1.4746-.7653.0778.1132,1.6894.5282,2.3864-.5384-.81-2.0089-2.8458-2.9785-2.7035-1.2086.1818.0052,1.6585.0052,1.6585s-4.64.5071-6.889,2.4319a3.4593,3.4593,0,0,0-.8234.9721C26.4078,99.927,27.8251,101.2581,30.8421,99.7716Z"/><path class="cls-7" d="M29.016,98.9378a13,13,0,0,1,3.117-1.1762c.1963-.0577.414-.1063.6237-.1483a13.1763,13.1763,0,0,1,3.9534-.2239,8.7568,8.7568,0,0,1,2.1511.4623,4.1447,4.1447,0,0,1-1.4581,1.0753.0986.0986,0,0,0-.0388.1147.0858.0858,0,0,0,.1069.0456,4.4055,4.4055,0,0,0,1.5543-1.1707,8.2776,8.2776,0,0,1,1.4134.6529c.2247.1362.4336.2858.6493.4433-.1794,2.1152-3.0058,2.7992-3.0284,2.8048a.076.076,0,0,0-.0669.0977.0742.0742,0,0,0,.0978.0669c.03-.0123,2.8941-.7006,3.1514-2.8684a9.0407,9.0407,0,0,1,1.3879,1.3288c.222.2612.4281.5359.6263.8173l.0067.0079.0135.0158a.1665.1665,0,0,0,.2533-.2152,9.7818,9.7818,0,0,0-.8664-1.0358,8.4915,8.4915,0,0,0-2.0963-1.6811c-.0708-.0352-.1349-.0625-.2057-.0978-.0455-.1658-.1685-.6474-.38-1.2173a7.0089,7.0089,0,0,0-.5012-1.0873,2.7337,2.7337,0,0,0-.8609-1.0132.0822.0822,0,0,0-.0852.1405,2.6135,2.6135,0,0,1,.8127.9724,9.9878,9.9878,0,0,1,.8167,2.1,9.089,9.089,0,0,0-2.4616-.8118,1.9823,1.9823,0,0,0-.0811-.2719c-.019-.0384-.0312-.0689-.05-.1073A7.3693,7.3693,0,0,0,35.8152,94.62a.1.1,0,0,0-.1183.0051.0857.0857,0,0,0,.0118.1263,7.5386,7.5386,0,0,1,1.6826,2.237,1.7879,1.7879,0,0,1,.1281.3273c-.2544-.0428-.5314-.08-.795-.1015a13.5547,13.5547,0,0,0-3.9831.3173c-.15.032-.2933.072-.4365.1119A13.2656,13.2656,0,0,0,29.016,98.9378Z"/><path class="cls-24" d="M30.8421,99.7716c3.5-1.72,7.6486.3713,7.9027.51-1.0768-.08-2.7977,1.0548-2.7195,1.9971.0793.9276,2.4044,2.06,5.7037-.3617a2.2343,2.2343,0,0,0,.901-1.4743c.222.2612.4281.5359.6263.8173l.0067.0079.0135.0158a.1665.1665,0,0,0,.2533-.2152,9.7818,9.7818,0,0,0-.8664-1.0358,7.4207,7.4207,0,0,0-2.2871-4.6812,9.3786,9.3786,0,0,0-.8961.5977c-.04.0336-.078.0527-.1176.0863l-.0158.0134a5.074,5.074,0,0,1-1.7762.9094c-.06.01-.1275.0266-.1793.03a2.2411,2.2411,0,0,1-.5893-.0037c-.48-.0832-.9224-.3477-1.4008-.4455a4.1822,4.1822,0,0,0-2.9484,1.0057c-.0542.0325-.0938.0661-.148.0985-.0622.0392-.11.0795-.1718.1187-.3119.21-.6226.4063-.9345.6168a6.2276,6.2276,0,0,1-1.4659.8093,2.2262,2.2262,0,0,1-1.6415-.0229,1.5353,1.5353,0,0,1-.6552-.6428c-.0392-.0621-.0625-.1377-.1017-.2C26.4078,99.927,27.8251,101.2581,30.8421,99.7716Z"/><path class="cls-7" d="M77.5079,81.6769q-9.218.2981-15.0853,3.83a39.3744,39.3744,0,0,0-6.022,4.3824q-4.006,3.4749-10.66,10.33l2.7418,1.9941,16.97-10.7882a33.0045,33.0045,0,0,0,7.3771.2209,14.6131,14.6131,0,0,0,5.9586-2.2932q.396-.1861,2.9943-1.9586l-4.2747-5.7175"/><path class="cls-25" d="M64.2458,56.7611,65.57,55.7445l8.8826,8.788L83.7289,62.84a9.6776,9.6776,0,0,1,2.5231,3.2786,1.8426,1.8426,0,0,1,.0861.8662l-.1289.4139a2.1994,2.1994,0,0,1-.6676.7823A11.1583,11.1583,0,0,1,79.9709,69.82a14.7555,14.7555,0,0,1-3.6545-.2049,10.7437,10.7437,0,0,1-2.6375-.8363A10.36,10.36,0,0,1,71.71,67.5523l-.9007-.7775a17.1832,17.1832,0,0,1-1.6606-1.83,49.8758,49.8758,0,0,1-4.9025-8.1836"/><path class="cls-7" d="M83.8239,84.5786l-1.0709.6a37.554,37.554,0,0,0-7.2684,4.9678,26.1431,26.1431,0,0,0-5.423,6.9739q-2.5225,4.1223-7.2468,17.6512l3.3265.6545,10.8514-16.93q5.79-1.8886,7.9066-3.7233,2.2554-1.6757,5.2091-6.8076l-6.2845-3.3866"/><path class="cls-26" d="M75.6332,81.7933l.3848-.4449a16.7846,16.7846,0,0,0,3.5769-5.6531,19.1729,19.1729,0,0,0,.6911-2.7293q.1275-.4687.6924-4.776.0366-.3535.2876-1.6139a15.9494,15.9494,0,0,1,1.2155-3.5318,18.6248,18.6248,0,0,1,6.3152-.52,18.7677,18.7677,0,0,1,5.954,2.267,56.7133,56.7133,0,0,1-.9321,11.4,83.8511,83.8511,0,0,1-3.9749,12.4987q-4.3906.3355-6.7448-.9387-2.35-1.02-7.4657-5.9587"/><path class="cls-25" d="M86.6823,59.851a5.7055,5.7055,0,0,1-.1939,2.1091c-.2155.45-.6572.5188-1.0989.588.7024.727,1.4048,1.454,2.2145,1.5037q.0455.0027.0913.0027a5.3147,5.3147,0,0,0,2.5526-1.2084,1.6,1.6,0,0,1-.9448-.905,5.7228,5.7228,0,0,1,.0348-2.0325Z"/><path class="cls-25" d="M85.94,54.2535c-.824,2.4969-1.6479,4.994-.8562,6.1524a1.57,1.57,0,0,0,.4815.449c1.06.6536,3.0928.5017,5.1254.35l1.7993-6.77Z"/><path class="cls-27" d="M82.6227,83.4813l-.0673.288Z"/><path class="cls-8" d="M80.8569,87.5678a.6122.6122,0,0,1-.3372.59l-2.0234,1.0329-1.0327.5269-3.0561,1.56a.4249.4249,0,0,1-.2318.0632.402.402,0,0,1-.274-.0421c-3.33-1.4122-5.9436-2.5292-7.8615-3.3512-.4426-.19-.8642-.3582-1.2435-.5058-1.2225-.5269-2.0444-.8852-2.4448-1.0538-.19-.0843-.2951-.1265-.2951-.1265a.5461.5461,0,0,1-.3583-.5058v-.0633a.6188.6188,0,0,1,.2529-.4847l.0211-.0211q1.3595-.8536,2.4026-1.5174h.0211c.5058-.3162.9485-.59,1.3489-.8431.1687-.1054.3162-.2107.4637-.2951a.6868.6868,0,0,1,.2951-.0843.7168.7168,0,0,1,.2108.0211l.59.19,1.96.6534,4.4472,1.4754L80.4353,87.02A.6407.6407,0,0,1,80.8569,87.5678Z"/><path class="cls-21" d="M74.4919,89.7808a.427.427,0,0,1-.2529.4847.5359.5359,0,0,1-.3584.0844.7436.7436,0,0,1-.2951-.0633l-8.4726-3.6884-3.1615-1.391-.0633-.0211a.6343.6343,0,0,1-.4-.4636c-.6112-2.7821-1.2435-5.5853-1.8548-8.4306a.1916.1916,0,0,1-.0209-.1054.5151.5151,0,0,1,.5269-.59h.1474l1.5807.2951,4.1521.8009,3.92.7376,2.1921.4a.7747.7747,0,0,1,.59.5691c.2529,1.7281.5691,3.6462.8852,5.7538.0422.2107.0633.4216.1055.6323.0842.548.1685,1.0749.2529,1.6018C74.1546,87.5256,74.3233,88.6638,74.4919,89.7808Z"/><path class="cls-7" d="M67.37,82.0065a.8333.8333,0,0,1-.8108,1.1176,1.5167,1.5167,0,0,1-1.3748-1.1176.8334.8334,0,0,1,.8108-1.1177A1.5166,1.5166,0,0,1,67.37,82.0065Z"/><path class="cls-28" d="M78.4963,89.1907l-1.0327.5269-3.0561,1.56a.4249.4249,0,0,1-.2318.0632.402.402,0,0,1-.274-.0421c-3.33-1.4122-5.9436-2.5292-7.8615-3.3512-.4426-.19-.8642-.3582-1.2435-.5058a2.93,2.93,0,0,0,.2529-.59l.0633-.2529a3.9191,3.9191,0,0,0-.4427-2.4237c-.0842-.1687-.19-.3373-.274-.5058h-.0211c-.3582-.6324-.8009-1.2014-1.1592-1.8338a10.761,10.761,0,0,1-1.3067-3.6673,7.4876,7.4876,0,0,1-.0422-2.2761l4.1521.8009,3.92.7376a1.9346,1.9346,0,0,0-.1686.274,8.9041,8.9041,0,0,0-.7376,3.035,5.8658,5.8658,0,0,0,.2318,2.5713,2.5973,2.5973,0,0,0,.2951.6534,5.7424,5.7424,0,0,0,3.9623,2.34,3.2853,3.2853,0,0,0,.4427.0843,9.1262,9.1262,0,0,1,2.6766.8009A4.9973,4.9973,0,0,1,78.4963,89.1907Z"/><path d="M66.6182,70.6914l.016-.1063Z"/><path d="M89.49,56.7516l-.0966-.0568Z"/><path class="cls-29" d="M85.25,56.4535c-.825-.9531-1.65-1.9061-1.64-2.982s.8541-2.2743,1.6987-3.4728a3.0313,3.0313,0,0,0,1.1337,2.014,2.1253,2.1253,0,0,0,.4886.2186c1.12.3474,3.11.1,4.6976.8284a4.46,4.46,0,0,1,.4783.2564,3.81,3.81,0,0,1,1.9527,3.81c-.3411,1.6314-2.2082,3.1879-3.453,3.9085a3.0531,3.0531,0,0,1-2.49.49A5.0083,5.0083,0,0,1,88.08,59.202c.2306-.4917.8249-.56,1.1508-.7923a.8752.8752,0,0,0,.3135-.9231.5148.5148,0,0,0-.2073-.3313.4611.4611,0,0,0-.4284.0007,6.76,6.76,0,0,0-1.4406,1.1176,3.989,3.989,0,0,0-.6449-2.0887.5266.5266,0,0,0-.0607-.0433C86.39,55.9118,85.82,56.1826,85.25,56.4535Z"/><path class="cls-12" d="M63.1193,113.9493l-.498.2727a32.5592,32.5592,0,0,0-4.2958,2.5882,2.2565,2.2565,0,0,0-.3086.3061.6849.6849,0,0,0-.163.3549.6064.6064,0,0,0,.3434.4769l.0958.066L59.79,117.87q2.2736-.2126,4.03-.4862a6.9624,6.9624,0,0,0,2.3907-.68.8874.8874,0,0,0,.45-.5879,1.8112,1.8112,0,0,0-.2446-.99,10.9757,10.9757,0,0,1-2.3-.3961,1.929,1.929,0,0,1-.9962-.7808"/><path class="cls-12" d="M46.0954,99.741q-2.8119,1.5023-4.26,2.4665-1.0167.6833-1.0054,1.0554.015.31.4391.5428,3.1464-.27,5.5266-.63a13.4413,13.4413,0,0,0,1.3359-.27q.2793-.0738.5039-.1542a2.9962,2.9962,0,0,0,.5509-.2555q.4564-.338.45-.588a1.7911,1.7911,0,0,0-.2446-.99,11.6838,11.6838,0,0,1-2.3-.3961,1.7428,1.7428,0,0,1-.5954-.3329,2.3048,2.3048,0,0,1-.4009-.4479"/><path class="cls-25" d="M78.8148,87.5122l-1.0515-1.3741,14.2758-8.0008a43.29,43.29,0,0,1-1.0071-6.0166,12.7486,12.7486,0,0,1,.3524-4.4824,5.3174,5.3174,0,0,1,2.0977-3.2369q.99-.62,2.149.8658a17.7562,17.7562,0,0,1,1.9172,8.1379,17.9981,17.9981,0,0,1-.2566,3.6494,10.9638,10.9638,0,0,1-1.4431,3.9536l-.8074,1.0674-.9671.93a13.3209,13.3209,0,0,1-3.714,2.0933,26.0149,26.0149,0,0,1-4.0014,1.173q-1.5852.4322-7.5439,1.24"/><path class="cls-25" d="M78.0427,86.0572l-.2236.0146a6.27,6.27,0,0,0-1.2871.1859,2.639,2.639,0,0,0-.3848.1417l-.18.0937a1.9016,1.9016,0,0,0-.3293.2418,2.8786,2.8786,0,0,0-.6842,1.0526,1.8135,1.8135,0,0,0-.141.6133.2682.2682,0,0,0,.0424.1654.1048.1048,0,0,0,.0848.036.7584.7584,0,0,0,.3377-.15l.5783-.4079q.1223-.0849.2416-.1557a1.6346,1.6346,0,0,1,.414-.1788,1.4322,1.4322,0,0,1,.3759-.047q.0289-.0016.1679.0068.41.0438.493.0451a2.4934,2.4934,0,0,0,.2933-.0058,6.6818,6.6818,0,0,0,1.048-.1878l-.847-1.4641"/><path class="cls-25" d="M65.5557,55.8351l-.0265-.1954a6.669,6.669,0,0,0-.2857-1.34,3.3388,3.3388,0,0,0-.2416-.5421,3.1,3.1,0,0,0-.2241-.344,4.6752,4.6752,0,0,0-.8823-.8786,2.2067,2.2067,0,0,0-.9567-.5007q-.3438-.0237-.1735.4318a1.5489,1.5489,0,0,0,.0962.182,3.3407,3.3407,0,0,0,.2132.3069q.2031.268.6857.8081a5.9119,5.9119,0,0,0-.7152,1.0411,1.3812,1.3812,0,0,0-.1378.4234.8313.8313,0,0,0,.0041.2692.8753.8753,0,0,0,.094.2571l.0777.1243a1.8886,1.8886,0,0,0,.2072.2417,6.8467,6.8467,0,0,0,1.0583.8008l1.207-1.0854"/><path class="cls-11" d="M21.94,49.6572l.9381,1.95,2.3042,4.6535a4.5158,4.5158,0,0,1,.1148,3.7094,4.5615,4.5615,0,0,1-2.161,2.239l-6.087,2.992a4.3772,4.3772,0,0,1-2.5167.42,4.4443,4.4443,0,0,1-3.4237-2.4354l-.8424-1.7091L8.8269,58.4936l-.87-1.7519-.02-.0115-.08-.1788L14.3024,53.4l3.3642-1.6373Z"/><path class="cls-12" d="M24.946,47.7305l-6.9629.5768-4.9826.3954a.6778.6778,0,0,0-.4313.195L10.618,51.0492,5.9811,56.1077,4.4819,57.76a.6245.6245,0,0,0,.5206,1.0449l3.8244-.311,2.2147-.1757,4.44-.3711,1.4661-.1145a.6788.6788,0,0,0,.4314-.195l1.7077-1.8723,3.7905-4.1575,2.3917-2.6314.0046-.0047.0023.004c.6342,1.15,1.1477,2.2286,1.5934,3.1863,1.1757,2.4769,1.9914,4.1857,3.5473,4.1032a2.1484,2.1484,0,0,0,.4844-.0745.2465.2465,0,0,0,.155-.106.25.25,0,0,0,.0223-.1956.2415.2415,0,0,0-.3015-.1773,1.4664,1.4664,0,0,1-.519.0543c-1.0941-.0519-1.7745-1.38-2.9344-3.8241-.4579-.9765-.9872-2.0878-1.6457-3.275a.2792.2792,0,0,0-.096-.0909A.6291.6291,0,0,0,24.946,47.7305Z"/><path class="cls-11" d="M32.7554,54.95a.7332.7332,0,0,1-.0247.6927.7793.7793,0,0,1-.3111.2925l-1.1077.5429a.7162.7162,0,0,1-.8951-.2131.4247.4247,0,0,1-.09-.1227.7632.7632,0,0,1-.0685-.3765.73.73,0,0,1,.0983-.3248.7525.7525,0,0,1,.3111-.2925l1.094-.5394A.752.752,0,0,1,32.7554,54.95Z"/><path class="cls-30" d="M17.9831,48.3073a10.8544,10.8544,0,0,0-.3165,3.4557,7.2749,7.2749,0,0,0,1.4206,4.0021.8052.8052,0,0,0,.13.1822c1.5654,1.87,4.1042,2.6243,6.079,4.0231a4.5615,4.5615,0,0,1-2.161,2.239l-6.087,2.992a4.3772,4.3772,0,0,1-2.5167.42c.0069-.1014.0219-.1718.0287-.2733a7.7291,7.7291,0,0,0-1.6064-5.167,9.22,9.22,0,0,0-1.9127-1.8635,10.6554,10.6554,0,0,0-2.4663-1.371,2.8874,2.8874,0,0,0-.6182-.2052l-.02-.0115a19.6512,19.6512,0,0,0-1.9563-.6225l4.6369-5.0585,1.9512-2.1515a.6783.6783,0,0,1,.4313-.195Z"/><path class="cls-31" d="M126.6727,91.1476a4.6738,4.6738,0,1,0-.49-6.5916A4.6692,4.6692,0,0,0,126.6727,91.1476Z"/><path class="cls-11" d="M134.0363,92.9515l5.732,4.9389,1.6114-1.87-5.7322-4.939a6.879,6.879,0,1,0-1.6112,1.87Zm-7.3636-1.8039a4.6738,4.6738,0,1,1,6.5866-.4942A4.6749,4.6749,0,0,1,126.6727,91.1476Z"/><path class="cls-12" d="M140.4111,92.3753H141.86a1.0742,1.0742,0,0,1,1.0742,1.0742v7.9788a1.0743,1.0743,0,0,1-1.0743,1.0743h-1.4485a1.0742,1.0742,0,0,1-1.0742-1.0742V93.45a1.0742,1.0742,0,0,1,1.0742-1.0742Z" transform="translate(307.0797 54.1257) rotate(130.7506)"/></g></g></g></g></svg>