<?xml version="1.0" encoding="utf-8"?>
<!-- Generator: Adobe Illustrator 25.0.0, SVG Export Plug-In . SVG Version: 6.00 Build 0)  -->
<svg version="1.0" id="Layer_1" xmlns="http://www.w3.org/2000/svg" xmlns:xlink="http://www.w3.org/1999/xlink" x="0px" y="0px"
	 width="212.4377px" height="32px" viewBox="0 0 212.4377 32" style="enable-background:new 0 0 212.4377 32;" xml:space="preserve"
	>
<style type="text/css">
	.st0{clip-path:url(#SVGID_2_);fill:#293A3C;}
	.st1{fill:#852ED5;}
	.st2{fill:#293A3C;}
</style>
<g id="Desktop">
	<g id="Search" transform="translate(-78.000000, -65.000000)">
		<g id="Logo" transform="translate(78.000000, 65.000000)">
			<g>
				<defs>
					<rect id="SVGID_1_" x="-52.8105" y="-2.2877" width="135.9676" height="37.5887"/>
				</defs>
				<clipPath id="SVGID_2_">
					<use xlink:href="#SVGID_1_"  style="overflow:visible;"/>
				</clipPath>
				<path id="TilburgScienceHub" class="st0" d="M33.654,25c0.066,0,0.132-0.066,0.132-0.132l-0.044-7.436l0.044-6.886h4.356
					c0.066,0,0.132-0.066,0.132-0.132V9.732c0-0.066-0.066-0.132-0.132-0.132h-9.878c-0.066,0-0.132,0.066-0.132,0.132v0.682
					c0,0.066,0.066,0.132,0.132,0.132h4.356l0.044,6.886l-0.044,7.436c0,0.066,0.066,0.132,0.132,0.132H33.654z M39.946,12.306
					c0.066,0,0.132-0.066,0.132-0.132v-1.298c0-0.066-0.066-0.132-0.132-0.132h-0.858c-0.066,0-0.132,0.066-0.132,0.132v1.298
					c0,0.066,0.066,0.132,0.132,0.132H39.946z M39.946,25c0.066,0,0.132-0.066,0.132-0.132l-0.044-5.874l0.044-5.192
					c0-0.066-0.066-0.132-0.132-0.132h-0.858c-0.066,0-0.132,0.066-0.132,0.132l0.022,5.214l-0.022,5.852
					c0,0.066,0.066,0.132,0.132,0.132H39.946z M42.872,25c0.066,0,0.132-0.066,0.132-0.132l-0.044-7.766l0.044-7.37
					c0-0.066-0.066-0.132-0.132-0.132h-0.836c-0.066,0-0.132,0.066-0.132,0.132l0.044,7.414l-0.044,7.722
					c0,0.066,0.066,0.132,0.132,0.132H42.872z M49.582,25.22c2.948,0,4.554-2.662,4.554-5.918c0-3.3-1.584-5.852-4.532-5.852
					c-1.76,0-3.036,0.902-3.762,2.354l0.022-6.072c0-0.066-0.066-0.132-0.132-0.132h-0.858c-0.066,0-0.132,0.066-0.132,0.132
					l0.044,6.204l-0.044,8.91c0,0.066,0.066,0.132,0.132,0.132h0.836c0.066,0,0.132-0.066,0.132-0.132l-0.044-2.09
					C46.502,24.362,47.822,25.22,49.582,25.22z M49.362,24.362c-2.288,0-3.652-1.914-3.63-5.17c0.022-3.234,1.474-4.884,3.652-4.884
					c2.53,0,3.63,2.266,3.63,5.104C53.014,22.184,51.892,24.362,49.362,24.362z M58.932,25.264c1.958,0,3.212-1.32,3.872-2.596
					l-0.066,2.2c0,0.066,0.066,0.132,0.132,0.132h0.836c0.066,0,0.132-0.066,0.132-0.132l-0.044-6.226l0.044-4.84
					c0-0.066-0.066-0.132-0.132-0.132h-0.858c-0.066,0-0.132,0.066-0.132,0.132l0.022,4.73v2.464
					c-0.748,2.068-1.892,3.344-3.586,3.344c-1.716,0-2.838-1.034-2.838-3.762v-2.046l0.022-4.73c0-0.066-0.066-0.132-0.132-0.132
					h-0.858c-0.066,0-0.132,0.066-0.132,0.132l0.022,4.73v2.156C55.236,23.79,56.644,25.264,58.932,25.264z M66.434,25
					c0.066,0,0.132-0.066,0.132-0.132l-0.022-6.82c0.33-2.464,2.002-3.564,3.652-3.564c0.33,0,0.616,0.022,0.836,0.088
					c0.066,0.022,0.132-0.022,0.132-0.088v-0.682c0-0.066-0.066-0.154-0.132-0.176c-0.242-0.066-0.506-0.088-0.814-0.088
					c-1.54,0-2.97,0.858-3.718,2.354l0.066-2.09c0-0.066-0.066-0.132-0.132-0.132h-0.836c-0.066,0-0.132,0.066-0.132,0.132
					l0.044,5.346l-0.044,5.72c0,0.066,0.066,0.132,0.132,0.132H66.434z M75.256,29.246c2.86,0,4.664-1.826,4.642-5.39l-0.022-6.71
					l0.044-3.344c0-0.066-0.066-0.132-0.132-0.132h-0.836c-0.066,0-0.132,0.066-0.132,0.132l0.044,2.112
					c-0.704-1.584-1.98-2.442-3.718-2.442c-3.014,0-4.62,2.618-4.62,5.874s1.584,5.61,4.62,5.61c1.738,0,3.014-0.88,3.718-2.376
					v1.276c0,3.168-1.452,4.532-3.608,4.532c-1.76,0-3.19-0.748-3.41-2.596c-0.022-0.066-0.088-0.132-0.154-0.132h-0.814
					c-0.066,0-0.132,0.066-0.132,0.132C70.944,28.256,72.902,29.268,75.256,29.246z M75.41,24.12
					c-2.552,0.022-3.784-1.804-3.784-4.796c0-2.926,1.21-5.038,3.652-5.038c2.31,0,3.652,1.936,3.63,5.148
					C78.886,22.624,77.434,24.098,75.41,24.12z M90.876,25.308c3.762,0,6.248-1.694,6.248-4.906c0-6.05-9.966-3.234-9.966-6.82
					c0-1.474,1.298-2.134,3.168-2.134c2.2,0,3.388,0.88,3.564,2.53c0.022,0.11,0.11,0.176,0.198,0.176h2.464
					c0.088,0,0.176-0.088,0.154-0.176c-0.396-3.234-2.728-4.686-6.292-4.686c-3.674,0-5.918,1.716-5.918,4.554
					c0,6.028,9.944,3.124,9.944,6.93c0,1.716-1.364,2.398-3.498,2.398c-2.772,0-3.74-1.254-3.916-3.234
					c-0.022-0.088-0.11-0.176-0.198-0.176h-2.464c-0.088,0-0.176,0.088-0.176,0.176C84.342,23.548,86.894,25.308,90.876,25.308z
					 M103.24,25.264c2.948,0,4.884-1.848,5.104-4.4c0.022-0.088-0.066-0.176-0.154-0.176h-2.156c-0.088,0-0.176,0.066-0.198,0.176
					c-0.132,1.628-1.122,2.552-2.552,2.53c-1.936-0.022-2.882-1.32-2.882-4.048c0-2.64,0.924-4.048,2.882-4.048
					c1.254,0,2.2,0.726,2.464,2.178c0.022,0.11,0.11,0.176,0.198,0.176h2.09c0.088,0,0.176-0.088,0.154-0.176
					c-0.242-2.442-2.046-4.07-4.906-4.07c-3.564,0-5.588,2.376-5.588,5.962S99.72,25.264,103.24,25.264z M111.754,12.504
					c0.088,0,0.176-0.088,0.176-0.176v-2.266c0-0.088-0.088-0.176-0.176-0.176h-2.332c-0.088,0-0.176,0.088-0.176,0.176v2.266
					c0,0.088,0.088,0.176,0.176,0.176H111.754z M111.776,25c0.088,0,0.176-0.088,0.176-0.176l-0.066-5.566l0.066-5.412
					c0-0.088-0.088-0.176-0.176-0.176h-2.354c-0.088,0-0.176,0.088-0.176,0.176l0.044,5.412l-0.044,5.566
					c0,0.088,0.088,0.176,0.176,0.176H111.776z M118.552,25.264c3.036,0,4.906-1.782,5.214-3.96
					c0.022-0.088-0.066-0.176-0.154-0.176h-2.2c-0.088,0-0.198,0.066-0.22,0.176c-0.308,1.408-1.21,2.09-2.596,2.09
					c-1.914,0-2.904-1.144-3.014-3.564h8.272c0.088,0,0.176-0.088,0.176-0.176c-0.066-3.872-2.046-6.248-5.566-6.248
					c-3.432,0-5.522,2.376-5.522,5.962C112.942,22.822,114.9,25.264,118.552,25.264z M121.17,18.048h-5.5
					c0.286-1.826,1.232-2.794,2.816-2.794C120.224,15.254,121.06,16.574,121.17,18.048z M127.462,25
					c0.088,0,0.176-0.088,0.176-0.176l-0.044-4.642V18.95c0.22-2.354,1.474-3.476,2.794-3.476c1.21,0,2.068,0.836,2.068,2.442v2.266
					l-0.044,4.642c0,0.088,0.088,0.176,0.176,0.176h2.332c0.088,0,0.176-0.088,0.176-0.176l-0.044-4.642V17.85
					c0-2.86-1.518-4.444-3.872-4.444c-1.694,0-2.992,0.858-3.718,1.914l0.066-1.474c0-0.088-0.088-0.176-0.176-0.176h-2.222
					c-0.088,0-0.176,0.088-0.176,0.176l0.022,5.83l-0.066,5.148c0,0.088,0.088,0.176,0.176,0.176H127.462z M141.454,25.264
					c2.948,0,4.884-1.848,5.104-4.4c0.022-0.088-0.066-0.176-0.154-0.176h-2.156c-0.088,0-0.176,0.066-0.198,0.176
					c-0.132,1.628-1.122,2.552-2.552,2.53c-1.936-0.022-2.882-1.32-2.882-4.048c0-2.64,0.924-4.048,2.882-4.048
					c1.254,0,2.2,0.726,2.464,2.178c0.022,0.11,0.11,0.176,0.198,0.176h2.09c0.088,0,0.176-0.088,0.154-0.176
					c-0.242-2.442-2.046-4.07-4.906-4.07c-3.564,0-5.588,2.376-5.588,5.962S137.934,25.264,141.454,25.264z M152.696,25.264
					c3.036,0,4.906-1.782,5.214-3.96c0.022-0.088-0.066-0.176-0.154-0.176h-2.2c-0.088,0-0.198,0.066-0.22,0.176
					c-0.308,1.408-1.21,2.09-2.596,2.09c-1.914,0-2.904-1.144-3.014-3.564h8.272c0.088,0,0.176-0.088,0.176-0.176
					c-0.066-3.872-2.046-6.248-5.566-6.248c-3.432,0-5.522,2.376-5.522,5.962C147.086,22.822,149.044,25.264,152.696,25.264z
					 M155.314,18.048h-5.5c0.286-1.826,1.232-2.794,2.816-2.794C154.368,15.254,155.204,16.574,155.314,18.048z M161.738,25
					c0.088,0,0.176-0.088,0.176-0.176l-0.066-6.996h7.458l-0.066,6.996c0,0.088,0.088,0.176,0.176,0.176h2.42
					c0.088,0,0.176-0.088,0.176-0.176l-0.088-7.48l0.088-7.568c0-0.088-0.088-0.176-0.176-0.176h-2.42
					c-0.088,0-0.176,0.088-0.176,0.176l0.044,5.94h-7.414l0.044-5.94c0-0.088-0.088-0.176-0.176-0.176h-2.398
					c-0.088,0-0.176,0.088-0.176,0.176l0.088,7.568l-0.088,7.48c0,0.088,0.088,0.176,0.176,0.176H161.738z M177.116,25.264
					c1.694,0,2.97-0.858,3.718-1.914l-0.066,1.474c0,0.088,0.088,0.176,0.176,0.176h2.222c0.088,0,0.176-0.088,0.176-0.176
					l-0.022-5.83l0.044-5.148c0-0.088-0.088-0.176-0.176-0.176h-2.354c-0.088,0-0.176,0.088-0.176,0.176l0.022,4.642v1.232
					c-0.22,2.354-1.452,3.476-2.794,3.476c-1.188,0-2.046-0.836-2.046-2.442v-2.266l0.044-4.642c0-0.088-0.088-0.176-0.176-0.176
					h-2.332c-0.088,0-0.176,0.088-0.176,0.176l0.044,4.642v2.332C173.244,23.68,174.74,25.264,177.116,25.264z M190.624,25.22
					c3.036,0,4.84-2.64,4.84-5.918c0-3.3-1.65-5.852-4.796-5.852c-1.496,0-2.64,0.616-3.432,1.694l0.022-5.368
					c0-0.088-0.088-0.176-0.176-0.176h-2.332c-0.088,0-0.176,0.088-0.176,0.176l0.066,7.194l-0.066,7.854
					c0,0.088,0.088,0.176,0.176,0.176h2.332c0.088,0,0.176-0.088,0.176-0.176l-0.066-1.276
					C187.962,24.648,189.128,25.22,190.624,25.22z M189.898,23.306c-1.782-0.022-2.794-1.474-2.772-4.092
					c0.022-2.552,1.056-3.85,2.838-3.85c1.848-0.022,2.794,1.496,2.794,4.07C192.758,21.832,191.834,23.35,189.898,23.306z"/>
			</g>
			<path id="Combined-Shape" class="st1" d="M18.7693,23.5709c0.6797,0,1.2307,0.5436,1.2307,1.2142s-0.551,1.2142-1.2307,1.2142
				l0,0H8.9235c-0.6797,0-1.2307-0.5436-1.2307-1.2142s0.551-1.2142,1.2307-1.2142l0,0H18.7693z M0.3607,9.3558
				c0.4809-0.4744,1.2606-0.4744,1.7415,0l0,0l7.3844,7.2851c0.2307,0.2279,0.3602,0.5369,0.36,0.859
				c0.0003,0.3221-0.1292,0.6311-0.36,0.859l0,0l-7.3844,7.2851c-0.4809,0.4744-1.2606,0.4744-1.7415,0s-0.4809-1.2436,0-1.7181l0,0
				L6.8866,17.5l-6.5259-6.4261C-0.1202,10.5995-0.1202,9.8303,0.3607,9.3558z"/>
		</g>
	</g>
</g>
<g>
	<path class="st2" d="M84.8701,25c-0.0879,0-0.1543-0.0664-0.1543-0.1543l0.0444-7.6562L84.7158,9.752
		c0-0.0884,0.0664-0.1543,0.1543-0.1543h9.9014c0.0879,0,0.1543,0.0659,0.1543,0.1543v1.8042c0,0.0879-0.0664,0.1538-0.1543,0.1538
		h-7.3486l-0.0439,4.0708h6.8203c0.0879,0,0.1543,0.0659,0.1543,0.1538v1.8037c0,0.0889-0.0664,0.1543-0.1543,0.1543h-6.8203
		l0.0439,4.9951h7.5244c0.0879,0,0.1543,0.0654,0.1543,0.1533v1.8047c0,0.0879-0.0664,0.1543-0.1543,0.1543H84.8701z"/>
	<path class="st2" d="M103.7256,25c-0.0879,0-0.1543-0.0664-0.1543-0.1543l0.0664-1.4082c-0.7705,1.123-1.958,1.7832-3.4766,1.7832
		c-3.1465,0-4.7969-2.5527-4.7969-5.8535c0-3.2783,1.8047-5.9189,4.8408-5.9189c1.4746,0,2.6182,0.5723,3.3887,1.6284V9.752
		c0-0.0884,0.0664-0.1543,0.1543-0.1543h2.332c0.0879,0,0.1543,0.0659,0.1543,0.1543l-0.0225,7.1729l0.0225,7.9209
		c0,0.0879-0.0664,0.1543-0.1543,0.1543H103.7256z M100.8652,23.3711c1.7822,0,2.8164-1.3193,2.8389-3.9375
		c0.0215-2.6406-0.9902-4.1152-2.7725-4.1372c-1.9365-0.0439-2.8828,1.4746-2.8828,3.9165
		C98.0488,21.832,98.9951,23.3711,100.8652,23.3711z"/>
	<path class="st2" d="M111.1826,25.2637c-2.3545,0-3.873-1.584-3.873-4.4443v-2.332l-0.0439-4.665
		c0-0.0879,0.0664-0.1538,0.1543-0.1538h2.376c0.0879,0,0.1543,0.0659,0.1543,0.1538l-0.0225,4.665v2.2666
		c0,1.6055,0.8359,2.4414,2.0469,2.4414c1.3418,0,2.5742-1.1211,2.7939-3.4766v-1.2314l-0.0439-4.665
		c0-0.0879,0.0664-0.1538,0.1543-0.1538h2.4199c0.0879,0,0.1543,0.0659,0.1543,0.1538l-0.0439,5.1709v5.8525
		c0,0.0879-0.0664,0.1543-0.1543,0.1543h-2.2666c-0.0879,0-0.1533-0.0664-0.1533-0.1543l0.0654-1.4961
		C114.1748,24.4062,112.876,25.2637,111.1826,25.2637z"/>
	<path class="st2" d="M123.876,25.2637c-3.5205,0-5.5449-2.3105-5.5449-5.8965c0-3.5864,2.0244-5.9629,5.5889-5.9629
		c2.8604,0,4.6865,1.6504,4.9072,4.0928c0.0215,0.0879-0.0439,0.1533-0.1328,0.1533h-2.1338c-0.0879,0-0.1543-0.0654-0.1758-0.1533
		c-0.2646-1.4521-1.1885-2.2007-2.4648-2.2007c-1.958,0-2.8818,1.4082-2.8818,4.0493c0,2.7285,0.9453,4.0254,2.8818,4.0479
		c1.4521,0.0225,2.3984-0.9014,2.5527-2.5518c0.0215-0.0879,0.0879-0.1543,0.1758-0.1543h2.2002
		c0.0879,0,0.1543,0.0664,0.1318,0.1543C128.7832,23.3936,126.8242,25.2637,123.876,25.2637z"/>
	<path class="st2" d="M137.8906,25c-0.0879,0-0.1543-0.0664-0.1543-0.1543l0.0439-1.4082c-0.7705,1.123-1.958,1.7832-3.4766,1.7832
		c-3.1465,0-4.7969-2.5527-4.7969-5.8535c0-3.2783,1.8047-5.9189,4.8408-5.9189c1.4961,0,2.6621,0.5942,3.4326,1.6943
		l-0.0664-1.3203c0-0.0879,0.0664-0.1538,0.1543-0.1538h2.3545c0.0879,0,0.1543,0.0659,0.1543,0.1538l-0.0439,5.4785l0.0439,5.5449
		c0,0.0879-0.0664,0.1543-0.1543,0.1543H137.8906z M135.0078,23.3496c1.7822,0,2.7949-1.3203,2.8389-3.9385
		c0.0215-2.6182-0.9902-4.0703-2.7725-4.0928c-1.9365-0.022-2.8828,1.4526-2.8828,3.873
		C132.1914,21.832,133.1592,23.3496,135.0078,23.3496z"/>
	<path class="st2" d="M147.9883,24.6699c0,0.0879-0.0664,0.1758-0.1543,0.1982c-0.5283,0.1758-1.21,0.3301-1.8262,0.3301
		c-1.7822,0-3.3887-0.9023-3.3887-3.4326v-6.1172h-1.2979c-0.0879,0-0.1543-0.0659-0.1543-0.1538v-1.6724
		c0-0.0879,0.0664-0.1538,0.1543-0.1538h1.2979l-0.0215-2.6846c0-0.0879,0.0654-0.1538,0.1533-0.1538h2.3545
		c0.0879,0,0.1543,0.0659,0.1543,0.1538l-0.0225,2.6846h2.6191c0.0879,0,0.1533,0.0659,0.1533,0.1538v1.6724
		c0,0.0879-0.0654,0.1538-0.1533,0.1538h-2.6191l0.0225,6.0508c0,1.1445,0.4619,1.4961,1.3203,1.4961
		c0.5059,0,0.9238-0.0879,1.2539-0.1758c0.0879-0.0215,0.1543,0.0439,0.1543,0.1104V24.6699z"/>
	<path class="st2" d="M149.0205,12.5244c-0.0879,0-0.1533-0.0664-0.1533-0.1543v-2.3101c0-0.0884,0.0654-0.1543,0.1533-0.1543h2.377
		c0.0879,0,0.1543,0.0659,0.1543,0.1543v2.3101c0,0.0879-0.0664,0.1543-0.1543,0.1543H149.0205z M149.0205,25
		c-0.0879,0-0.1533-0.0664-0.1533-0.1543l0.0215-5.5879l-0.0215-5.4355c0-0.0879,0.0654-0.1538,0.1533-0.1538h2.377
		c0.0879,0,0.1543,0.0659,0.1543,0.1538l-0.0439,5.4355l0.0439,5.5879c0,0.0879-0.0664,0.1543-0.1543,0.1543H149.0205z"/>
	<path class="st2" d="M158.1074,25.2637c-3.5869,0-5.6113-2.3105-5.6113-5.8965c0-3.5864,2.0244-5.9629,5.6113-5.9629
		c3.5645,0,5.5664,2.3105,5.5664,5.8965C163.6738,22.9102,161.6719,25.2637,158.1074,25.2637z M158.1074,23.3936
		c1.9141,0,2.8379-1.3193,2.8379-4.0264c0-2.6846-0.9463-4.0928-2.8604-4.0928c-1.958,0.022-2.8818,1.4302-2.8818,4.1143
		C155.2031,22.0518,156.1709,23.3936,158.1074,23.3936z"/>
	<path class="st2" d="M164.7061,25c-0.0879,0-0.1533-0.0664-0.1533-0.1543l0.0439-5.1699v-5.8535
		c0-0.0879,0.0654-0.1538,0.1533-0.1538h2.2666c0.0879,0,0.1543,0.0659,0.1543,0.1538l-0.0664,1.4961
		c0.7266-1.0557,2.0244-1.9141,3.7188-1.9141c2.3545,0,3.873,1.5845,3.873,4.4453v2.332l0.0439,4.6641
		c0,0.0879-0.0664,0.1543-0.1543,0.1543h-2.377c-0.0879,0-0.1533-0.0664-0.1533-0.1543l0.0215-4.6641V17.915
		c0-1.6064-0.8359-2.4424-2.0459-2.4424c-1.3418,0-2.5742,1.1221-2.7949,3.4766v1.2324l0.0449,4.6641
		c0,0.0879-0.0664,0.1543-0.1543,0.1543H164.7061z"/>
	<path class="st2" d="M186.0918,25c-0.0879,0-0.1543-0.0664-0.1543-0.1543l0.0439-7.0186h-7.4365l0.0439,7.0186
		c0,0.0879-0.0664,0.1543-0.1543,0.1543h-2.4209c-0.0879,0-0.1533-0.0664-0.1533-0.1543l0.0439-7.5029l-0.0439-7.5908
		c0-0.0884,0.0654-0.1543,0.1533-0.1543h2.4209c0.0879,0,0.1543,0.0659,0.1543,0.1543l-0.0439,5.9629h7.4365l-0.0439-5.9629
		c0-0.0884,0.0664-0.1543,0.1543-0.1543h2.4199c0.0879,0,0.1543,0.0659,0.1543,0.1543l-0.0439,7.5908l0.0439,7.5029
		c0,0.0879-0.0664,0.1543-0.1543,0.1543H186.0918z"/>
	<path class="st2" d="M193.7031,25.2637c-2.3545,0-3.873-1.584-3.873-4.4443v-2.332l-0.0439-4.665
		c0-0.0879,0.0664-0.1538,0.1543-0.1538h2.376c0.0879,0,0.1543,0.0659,0.1543,0.1538l-0.0225,4.665v2.2666
		c0,1.6055,0.8359,2.4414,2.0469,2.4414c1.3418,0,2.5742-1.1211,2.7939-3.4766v-1.2314l-0.0439-4.665
		c0-0.0879,0.0664-0.1538,0.1543-0.1538h2.4199c0.0879,0,0.1543,0.0659,0.1543,0.1538l-0.0439,5.1709v5.8525
		c0,0.0879-0.0664,0.1543-0.1543,0.1543h-2.2666c-0.0879,0-0.1533-0.0664-0.1533-0.1543l0.0654-1.4961
		C196.6953,24.4062,195.3965,25.2637,193.7031,25.2637z"/>
	<path class="st2" d="M207.167,25.2207c-1.4961,0-2.6631-0.5947-3.4326-1.6729l0.0439,1.2979c0,0.0879-0.0664,0.1543-0.1543,0.1543
		h-2.3545c-0.0879,0-0.1533-0.0664-0.1533-0.1543l0.0439-7.877l-0.0439-7.2168c0-0.0884,0.0654-0.1543,0.1533-0.1543h2.3545
		c0.0879,0,0.1543,0.0659,0.1543,0.1543v5.3906c0.792-1.0562,1.9365-1.6943,3.4326-1.6943c3.124,0,4.7969,2.5522,4.7969,5.8525
		C212.0078,22.5801,210.2031,25.2207,207.167,25.2207z M206.4404,23.3057c1.9141,0.0439,2.8604-1.4736,2.8604-3.8721
		c0-2.5747-0.9463-4.0928-2.8164-4.0708c-1.7598,0-2.7939,1.2979-2.8164,3.8501C203.6465,21.832,204.6367,23.2832,206.4404,23.3057z
		"/>
</g>
</svg>
